<?xml version="1.0" encoding="UTF-8" standalone="no"?>
<!-- Created with Inkscape (http://www.inkscape.org/) -->

<svg
   width="763.45563"
   height="796.01501"
   viewBox="0 0 201.99763 210.6123"
   version="1.1"
   id="svg1"
   inkscape:version="1.3 (0e150ed, 2023-07-21)"
   sodipodi:docname="flower.svg"
   xmlns:inkscape="http://www.inkscape.org/namespaces/inkscape"
   xmlns:sodipodi="http://sodipodi.sourceforge.net/DTD/sodipodi-0.dtd"
   xmlns="http://www.w3.org/2000/svg"
   xmlns:svg="http://www.w3.org/2000/svg">
  <sodipodi:namedview
     id="namedview1"
     pagecolor="#ffffff"
     bordercolor="#000000"
     borderopacity="0.25"
     inkscape:showpageshadow="2"
     inkscape:pageopacity="0.0"
     inkscape:pagecheckerboard="0"
     inkscape:deskcolor="#d1d1d1"
     inkscape:document-units="mm"
     showgrid="false"
     inkscape:zoom="0.58"
     inkscape:cx="285.34483"
     inkscape:cy="475.86207"
     inkscape:window-width="1416"
     inkscape:window-height="861"
     inkscape:window-x="0"
     inkscape:window-y="38"
     inkscape:window-maximized="0"
     inkscape:current-layer="layer1" />
  <defs
     id="defs1" />
  <g
     inkscape:label="Layer 1"
     inkscape:groupmode="layer"
     id="layer1"
     transform="translate(-29.851114,-22.625977)">
    <path
       style="fill:none;fill-opacity:1;stroke:#5d5d5d;stroke-width:1.25381;stroke-dasharray:none;stroke-opacity:1"
       d="m 120.55184,115.28212 3.16067,-9.87285 c 0.669,-2.08973 1.9577,-4.56981 2.16256,-6.755105 0.24351,-2.597493 0.85397,-5.067863 1.18681,-7.640349 0.0741,-0.571936 -0.17134,-1.17428 -0.072,-1.741687 0.86701,-4.952388 4.88071,-11.907575 5.32323,-16.627939 0.58145,-6.202464 3.34119,-12.403345 5.25122,-18.369621 0.79396,-2.480048 3.73887,-13.979176 4.99052,-15.588693 2.03157,-2.612399 3.81248,-5.05137 5.68323,-7.919516 0.19997,-0.306499 0.10706,-0.749162 0.3327,-1.039247 0.31904,-0.410258 1.15575,-0.263357 1.4748,-0.673618 0.22564,-0.290083 0.10707,-0.749157 0.3327,-1.039245 0.46291,-0.595235 1.7308,-1.059066 2.37857,-1.530046 0.2201,-0.16002 2.46982,-2.015369 2.54491,-2.049668 1.52572,-0.696866 -0.57215,1.628137 1.30846,-0.153994 0.13464,-0.127695 -0.007,-0.440237 0.16635,-0.519623 0.17381,-0.07939 0.39725,0.262203 0.57105,0.182814 0.17382,-0.07938 -0.007,-0.440234 0.16635,-0.519623 1.10771,-0.505937 4.19127,0.506817 4.90112,0.423278 1.60433,-0.188812 5.46503,0.601152 7.01899,1.674162 1.06028,0.732121 4.55927,5.784891 4.61807,7.207196 0.0152,0.367194 -0.34792,0.672055 -0.3327,1.039246 0.0426,1.031419 1.41221,2.355877 1.45245,3.329375 0.0152,0.367194 -0.2218,0.692831 -0.3327,1.039247 0.21435,0.641502 0.57379,1.263056 0.64306,1.924501 0.0384,0.3669 -0.3175,0.6736 -0.3327,1.039246 -0.0411,0.984493 0.35142,1.97925 0.31033,2.963744 -0.0229,0.548449 -0.42887,1.016251 -0.49905,1.558867 -0.15757,1.217887 0.13524,2.78511 -0.0223,4.002998 -0.14041,1.085218 -0.8577,2.032524 -0.99811,3.117737 -0.62729,4.848129 -2.41509,9.510472 -3.92043,14.212638 -4.45874,13.927605 -8.16065,28.386452 -16.1633,40.655765 -1.30663,2.00327 -2.76493,4.43006 -4.44678,6.02384 -0.26945,0.25534 -0.0632,0.78392 -0.3327,1.03926 -0.19057,0.18053 -0.57788,0.13167 -0.73742,0.33681 -0.33838,0.43514 -0.0949,1.17586 -0.49905,1.55887 -1.48746,1.4096 -2.30887,3.58043 -3.54301,5.1674 -0.15944,0.20516 -0.54687,0.15625 -0.73741,0.33681 -0.27283,0.25854 -0.15817,1.40318 -0.49905,1.55886 -0.1738,0.0794 -0.39724,-0.26219 -0.57105,-0.18281 -0.34761,0.15878 -0.0633,0.78391 -0.3327,1.03925 -0.38106,0.3611 -2.01319,0.50125 -1.47479,0.67361 0.84502,0.27052 0.007,-0.44682 0.90373,-0.85643 0.17382,-0.0794 0.39726,0.2622 0.57106,0.18282 0.17381,-0.0794 -0.007,-0.44024 0.16635,-0.51963 0.18473,-0.0844 2.65466,-0.56244 3.35431,-0.64478 1.30363,-0.15342 3.14265,-0.11985 4.49643,-0.27918 2.72274,-0.32044 -0.62197,-0.15953 0.90375,-0.85641 0.32372,-0.14787 5.6941,-0.67014 6.54227,-0.76997 0.77289,-0.091 1.45992,-0.82995 2.21223,-1.01042 0.53952,-0.12944 3.28192,-3.18486 3.46376,-3.26791 0.38863,-0.17753 0.56448,-0.60977 0.90373,-0.85645 0.94543,-0.68738 2.45684,-0.84808 3.52067,-1.16441 2.06526,-0.6141 3.79796,-2.19037 5.89923,-2.69445 2.56031,-0.61423 5.03522,-1.52777 7.61238,-2.14604 2.29402,-0.55032 4.15258,-2.23887 6.47029,-2.51164 0.94263,-0.11094 2.27793,-0.0181 3.18797,-0.12516 0.97525,-0.11479 1.79267,-0.84281 2.78327,-0.82762 0.39623,0.006 0.7638,0.45639 1.14209,0.36563 0.42293,-0.10146 0.5151,-0.67892 0.90376,-0.85642 0.0112,-0.005 7.41544,-0.93064 7.85073,-0.92396 0.59435,0.009 1.11881,0.49711 1.71315,0.54844 3.1788,0.27453 6.14782,1.39527 9.30319,2.40542 2.52245,0.80753 8.29742,1.92243 10.27895,3.29067 0.23059,0.15921 0.17412,0.54323 0.40471,0.70244 0.32609,0.22517 0.81599,0.14046 1.1421,0.36563 0.46117,0.31844 0.44842,0.98971 0.80941,1.40488 2.82985,3.25468 3.45939,6.44086 3.61996,10.32494 0.0901,2.17924 1.1441,8.32738 -0.71011,10.08447 -1.49675,1.4184 -8.49531,4.75936 -11.22739,5.57175 -0.4149,0.12337 -0.91982,-0.0235 -1.30846,0.15399 -0.38864,0.17753 -0.5151,0.67892 -0.90375,0.85644 -0.7773,0.35502 -1.77106,0.10505 -2.61692,0.30797 -1.22097,0.29292 -2.3186,0.80698 -3.52067,1.16443 -1.61286,0.47958 -1.30722,-0.19704 -3.18796,0.12517 -3.60277,0.61718 -8.08489,2.23869 -11.94244,1.90555 -2.75253,-0.23772 -5.81905,-0.43737 -8.66014,-0.48093 -1.27088,-0.0195 -2.79417,0.47934 -3.92537,0.46198 -0.39625,-0.006 -0.74585,-0.35958 -1.1421,-0.36562 -2.27617,-0.0349 -4.03438,0.28626 -6.37592,0.25033 -3.6411,-0.0558 -7.63315,1.50841 -11.22016,1.93056 -2.10755,0.24805 -4.86889,0.78099 -7.11333,0.58715 -0.39626,-0.0341 -0.74587,-0.35958 -1.1421,-0.36563 -1.31161,-0.0201 -3.02184,0.40652 -4.49642,0.27917 -0.39626,-0.0341 -0.74586,-0.35959 -1.14211,-0.36563 -0.28017,-0.004 -0.45722,0.3411 -0.73741,0.3368 -0.59435,-0.009 -1.12798,-0.61731 -1.71314,-0.54844 -1.02913,0.12113 -0.81379,0.31236 -1.87952,-0.0288 -0.3807,-0.12188 -1.0312,-0.71205 -1.14211,-0.36563 -0.0554,0.17321 0.3807,0.12187 0.57105,0.18281 l 2.28423,0.73127 5.13946,1.64533 c 3.36409,1.07697 6.22357,3.075 9.20884,4.66674 2.03578,1.08545 4.17262,1.49481 6.11524,2.53059 1.05913,0.56472 2.02018,1.60385 3.09361,2.13612 0.71458,0.35435 1.56963,0.37692 2.28421,0.73126 0.79892,0.39618 1.1858,1.31826 1.9515,1.77053 1.62918,0.96224 11.95543,3.95956 13.5846,4.92181 2.49614,1.47429 4.83321,3.16359 7.32934,4.6379 0.68487,0.4045 1.59934,0.32675 2.2842,0.73126 1.24769,0.73691 2.43687,2.10565 3.49833,2.83857 0.74681,0.51569 1.99778,0.80668 2.6889,1.43371 0.85235,0.77329 2.04703,2.5277 2.76091,3.17538 1.20162,1.09017 -0.0326,-1.67336 1.54681,1.06805 0.0954,0.16558 -0.20181,0.33748 -0.16636,0.51964 0.11519,0.59052 1.14732,2.38198 1.61882,2.80975 0.14546,0.13193 0.47566,0.0173 0.57104,0.18281 0.13426,0.23302 0.40635,2.08334 0.47671,2.44412 0.49598,2.54297 0.13841,-0.56812 0.97576,0.88526 0.19077,0.33114 -0.52348,0.70811 -0.3327,1.03925 0.0954,0.16556 0.47566,0.0172 0.57105,0.18281 0.18605,0.32295 0.38299,1.96361 0.4767,2.44412 0.072,0.36893 -0.68613,1.23416 -0.49906,1.55888 0.162,0.28116 0.63561,0.51372 0.80942,1.40487 0.0941,0.48254 -0.5193,1.06926 -0.49906,1.55887 0.0313,0.75696 -0.24086,1.51018 -0.0944,2.26131 0.0354,0.18216 0.47565,0.0172 0.57104,0.18281 0.18709,0.32471 -0.571,1.18995 -0.49905,1.55887 0.17208,0.8822 0.30465,1.56192 0.47672,2.44414 0.0376,0.19285 -0.50588,2.00563 -0.6654,2.07848 -0.34762,0.15877 -0.76142,-0.24375 -1.14213,-0.36563 -1.06572,-0.34118 -0.85036,-0.14992 -1.87949,-0.0288 -0.16127,0.0189 -4.36174,-0.8235 -4.73478,-0.94292 -1.17429,-0.37594 -1.34941,-0.34118 -2.45056,-0.21163 -1.22123,0.14373 -2.77614,-1.42343 -3.99735,-1.2797 -0.27587,0.0325 -0.46156,0.30434 -0.73741,0.3368 -1.21583,0.14309 -2.75174,-1.2606 -3.99737,-1.27971 -0.44301,-0.007 -0.86546,0.1608 -1.30847,0.154 -1.92843,-0.0296 -13.24729,-4.91733 -14.51466,-5.79245 -0.957,-0.66081 -1.94052,-1.97442 -2.92727,-2.65576 -1.2604,-0.87032 -3.03024,-1.4081 -4.2357,-2.50177 -0.41143,-0.37325 -0.39799,-1.03161 -0.80941,-1.40486 -0.29091,-0.26394 -0.7997,-0.1633 -1.14211,-0.36563 -1.09152,-0.6447 -1.92946,-1.88314 -2.92725,-2.65578 -4.47517,-3.46527 -17.73117,-9.45389 -21.46264,-13.74553 -1.03483,-1.19017 -1.24661,-1.46625 -2.35621,-2.47293 -0.41142,-0.37325 -0.39798,-1.03162 -0.8094,-1.40487 -0.29569,-0.26827 -1.37723,-0.77373 -1.54681,-1.06807 -0.20236,-0.35122 -0.036,-0.87085 -0.23836,-1.22207 -0.19077,-0.33114 -0.95133,-0.0345 -1.14209,-0.36563 -0.0954,-0.16556 0.26173,-0.35406 0.16635,-0.51962 -0.1908,-0.33113 -0.95134,-0.0345 -1.14212,-0.36564 -0.0954,-0.16556 0.26174,-0.35406 0.16635,-0.51962 -0.19076,-0.33113 -0.95132,-0.0345 -1.14209,-0.36563 -0.0954,-0.16556 0.2018,-0.33748 0.16635,-0.51963 -0.10581,-0.5424 -1.81729,-2.3004 -2.35622,-2.47293 -2.63928,6.49832 -3.47514,12.37803 -2.22962,18.76408 0.1066,0.54652 -0.52181,1.00809 -0.49905,1.55886 0.0231,0.55787 0.45681,1.36711 0.64306,1.9245 0.50472,1.51047 0.63209,3.92794 0.78706,5.40787 0.21241,2.02838 -0.13447,3.42816 0.216,5.22506 0.072,0.36892 -0.68613,1.23414 -0.49905,1.55887 0.0954,0.16556 0.47565,0.0172 0.57105,0.18282 0.41014,0.71187 -4.10014,12.80745 -4.36504,13.6349 -0.50932,1.59095 -1.58468,7.29343 -2.66161,8.31397 -0.19057,0.18053 -0.49161,0.22453 -0.7374,0.33681 -0.16635,0.51962 -0.19917,1.09909 -0.49905,1.55886 -0.28274,0.43348 -1.15577,0.26335 -1.47482,0.67361 -0.5308,0.68258 -0.77871,1.82391 -1.4028,2.41531 -0.38106,0.36109 -1.04566,0.36159 -1.47482,0.67362 -0.6254,0.4547 -1.22513,1.68811 -1.97385,2.23249 -1.29316,0.94021 -2.73499,1.78919 -4.01972,2.72328 -1.06288,-0.40547 -0.76886,1.09057 -1.07011,1.37604 -2.88757,2.7364 -7.71677,5.45153 -11.79844,5.38893 -2.213413,-0.0339 -4.793702,-1.7216 -5.948889,-3.05021 -2.482392,-2.85507 0.445094,-0.0358 -1.047741,-2.62693 -0.213295,-0.37023 -0.806683,-0.4977 -0.975758,-0.88526 -1.198561,-2.74737 -0.245076,-5.92826 -0.360005,-8.70842 -0.08174,-1.97733 -0.603625,-3.95207 -0.620693,-5.92749 -0.03111,-3.59829 0.36439,-7.15612 0.305389,-10.78692 -0.01606,-0.98801 -0.402131,-1.98474 -0.310346,-2.96375 0.219441,-2.34082 3.820416,-16.4273 3.411643,-18.52314 -0.275879,-1.41438 2.1834,-6.8202 2.661609,-8.31396 0.941288,-2.94027 2.099531,-6.06264 3.970061,-8.46798 0.5925,-0.76191 0.28903,-2.4458 0.9981,-3.11774 0.84369,-0.7995 1.02226,-1.22659 1.4028,-2.41529 0.15978,-0.4991 1.87572,-1.59453 1.40282,-2.41531 -0.19078,-0.33114 -0.75199,-0.41154 -1.14211,-0.36563 -0.92353,0.1087 -1.17505,0.75156 -1.64115,1.19324 -0.96248,0.91207 -4.053094,1.52635 -4.995475,1.83803 -4.524192,1.49632 -8.558224,4.0385 -13.106918,5.54293 -1.278271,0.42276 -2.37428,1.3691 -3.687012,1.68402 -1.54846,0.37148 -3.81994,-0.0298 -5.23382,0.61598 -0.388648,0.17751 -0.493929,0.72088 -0.903754,0.85644 -0.219151,0.0725 -3.98401,0.80918 -4.662776,0.79878 -0.396245,-0.006 -0.745847,-0.33149 -1.142104,-0.36563 -1.729808,-0.14939 -3.504018,0.76536 -5.233821,0.61596 -0.396259,-0.0341 -0.745859,-0.35959 -1.142106,-0.36563 -0.280172,-0.004 -0.457224,0.34111 -0.737406,0.33682 -2.025331,-0.0311 -3.988418,-0.75741 -6.043226,-0.78891 -2.989859,-0.0459 -9.652734,-3.53869 -12.230456,-5.06118 -1.448273,-0.85541 -3.049278,-1.04801 -4.402067,-1.98215 -1.758897,-1.21451 -3.472776,-2.48013 -5.045124,-3.90664 -0.780604,-0.7082 -0.838205,-2.10155 -1.618808,-2.80975 -2.35966,-2.14081 -4.094839,-4.90842 -2.976911,-8.40045 0.19981,-0.62414 0.356604,-2.14784 0.831752,-2.59811 2.467864,-2.33863 5.606136,-3.46377 8.610486,-5.26375 1.52427,-0.91324 3.452128,-2.42722 5.328177,-2.87729 2.644729,-0.63446 6.988942,-2.15557 9.491891,-2.11719 1.325038,0.0203 2.327863,0.40097 3.75902,0.0576 3.909018,-0.93776 8.945271,-1.36342 12.918204,-1.02029 1.729808,0.14939 3.50402,-0.76538 5.233823,-0.61597 0.396256,0.0341 0.745858,0.35959 1.142103,0.36563 0.714327,0.0109 1.34259,-0.40804 2.045863,-0.49081 5.714742,-0.67257 -2.709359,0.13251 2.450562,0.21163 2.123404,0.0326 4.410928,-0.95402 6.542278,-0.76995 4.605661,0.39775 -2.644496,0.52796 2.450556,0.21163 2.378114,-0.14763 6.949883,-0.0673 9.397549,0.14411 0.79247,0.0684 1.49176,0.66283 2.28421,0.73126 0.93331,0.64408 1.33153,-0.50175 2.04587,-0.49078 1.0102,0.0155 2.0144,0.26296 3.0216,0.39445 0.46195,0.0603 3.58398,0.60444 3.59268,0.57726 0.1109,-0.34642 -0.76141,-0.24375 -1.14212,-0.36563 l -4.56842,-1.46252 c -0.76139,-0.24375 -1.59933,-0.32675 -2.28421,-0.73126 -0.24213,-0.14304 -0.15611,-0.5699 -0.40469,-0.70245 -1.7578,-0.93723 -3.87991,-1.03122 -5.710534,-1.82815 -1.645917,-0.71652 -3.218259,-1.83761 -4.806766,-2.68458 -1.394049,-1.84381 -3.748822,-1.4575 -5.544189,-2.34777 -1.702035,-0.844 -2.930315,-2.29241 -4.640415,-3.20421 -2.160383,-1.15188 2.759624,3.26786 -3.259965,-1.61651 -0.433078,-0.35142 -0.397988,-1.03163 -0.809401,-1.40489 -0.290912,-0.26393 -0.82982,-0.12381 -1.142105,-0.36563 -0.562984,-0.43592 -0.817479,-1.15174 -1.380458,-1.58769 -0.312283,-0.24181 -0.829819,-0.12381 -1.142104,-0.36563 -1.258864,-0.97478 -2.159254,-2.29425 -3.331967,-3.35819 -2.076957,-1.88432 -3.7732,-3.8213 -5.688175,-5.83115 -0.877005,-0.92045 -2.153557,-1.6632 -2.927263,-2.655754 -1.166304,-1.49622 -1.666611,-3.42085 -2.832913,-4.91707 -0.266113,-0.341401 -0.762461,-0.515032 -0.975752,-0.885262 -0.426596,-0.740431 -0.138558,-1.669003 -0.476704,-2.444118 -0.427724,-0.980453 -1.223675,-1.819074 -1.61881,-2.809748 -1.362935,-3.417176 -1.898283,-7.357715 -1.574107,-10.815735 1.572989,-1.088051 -0.510813,-1.62655 -0.476701,-2.444128 0.07963,-1.908595 0.778663,-1.325712 0.831753,-2.598113 0.194238,-4.655326 2.35198,-9.426749 4.896173,-13.327392 0.576031,-0.883144 1.976565,-1.318827 2.544911,-2.049669 0.225597,-0.290098 0.107105,-0.749148 0.332702,-1.039246 0.390907,-0.502667 1.680145,-0.623575 2.21221,-1.010423 3.639283,-2.64602 8.32559,-3.893467 13.012558,-3.281612 1.428458,0.186476 2.9069,0.01179 4.330069,0.24046 2.048299,0.32912 13.779081,4.061933 15.418419,4.936011 1.138446,0.607007 1.816894,1.999939 2.927264,2.655762 6.6296,3.91568 9.74989,8.839251 13.39987,15.174482 0.63484,1.101919 1.79175,2.323928 2.0235,3.512187 0.48429,2.483009 1.17455,5.041309 2.00117,7.51519 0.85561,2.560627 1.89066,4.842536 2.00116,7.515188 0.0787,1.904488 1.00536,3.782092 1.3581,5.590686 0.29644,1.519924 0.0897,2.169324 0.14399,3.483354 0.0249,0.60137 0.52482,1.31832 0.64307,1.92451 0.071,0.36435 -0.52349,0.70811 -0.3327,1.03925 0.0954,0.16555 0.47565,0.0172 0.57104,0.18281 0.20236,0.35122 -0.70141,1.20766 -0.49905,1.55887 0.0954,0.16557 0.47566,0.0172 0.57105,0.18281 0.3376,0.58598 -2.88829,7.30501 -3.06632,7.61154 z"
       id="path9"
       sodipodi:nodetypes="csscssssccccscssssssccscscssssssssssssssssssssssssssssssssscsssssssssssssssssscsscccsssssscssssssssssssssssssssssssssssssssssssssssscsssssssssssscssssssssscssssscsssssssssssssssssssssssccssssssssssssssccssssscscssscsscsssssssssssssscsssssssssssssssssssssc" />
  </g>
</svg>
